<?xml version="1.0" encoding="utf-8"?>
<!-- Generator: Adobe Illustrator 24.0.2, SVG Export Plug-In . SVG Version: 6.00 Build 0)  -->
<svg version="1.1" id="Capa_1" xmlns="http://www.w3.org/2000/svg" xmlns:xlink="http://www.w3.org/1999/xlink" x="0px" y="0px"
	 viewBox="0 0 512 512" style="enable-background:new 0 0 512 512;" xml:space="preserve">
<style type="text/css">
	.st0{fill:#F8A734;}
</style>
<g>
	<g>
		<path class="st0" d="M477.2,131h-46.8l-10.8-48.6C415,61.6,397,47,375.7,47H213.1c-21.3,0-39.3,14.5-43.9,35.3L158.4,131h-11.1
			v-20.8c0-11.7-9.5-21.2-21.2-21.2H57.5c-11.7,0-21.2,9.5-21.2,21.2V131h-1.5C15.6,131,0,146.6,0,165.7v235.4
			c0,19.2,15.6,34.8,34.8,34.8h35.5H196c28.4,18.4,62.2,29.1,98.4,29.1s70-10.7,98.4-29.1h84.4c19.2,0,34.8-15.6,34.8-34.8V165.7
			C512,146.6,496.4,131,477.2,131z M188.6,86.7c2.6-11.5,12.6-19.6,24.4-19.6h162.6c11.8,0,21.9,8.1,24.4,19.6l9.8,44.3h-17.1
			c-28.4-18.4-62.2-29.1-98.4-29.1s-70,10.7-98.4,29.1h-17.1L188.6,86.7z M56.3,110.2c0-0.7,0.5-1.2,1.2-1.2H126
			c0.7,0,1.2,0.5,1.2,1.2V131h-71V110.2z M80.3,415.9V307.3c0-5.5-4.5-10-10-10s-10,4.5-10,10v108.6H34.8c-8.1,0-14.8-6.6-14.8-14.8
			V165.7c0-8.1,6.6-14.8,14.8-14.8h11.5h91h29.1h4c-35.4,33.1-57.5,80.3-57.5,132.5s22.2,99.3,57.5,132.5H80.3z M386.7,415.9
			c-11.9,8.3-25,15.1-39,20c-16.7,5.9-34.7,9.1-53.4,9.1s-36.6-3.2-53.4-9.1c-14-4.9-27.1-11.7-39-20
			c-41.8-29.2-69.2-77.7-69.2-132.5S160.2,180.2,202,151c11.9-8.3,25-15.1,39-20c16.7-5.9,34.7-9.1,53.4-9.1s36.6,3.2,53.4,9.1
			c14,4.9,27.1,11.7,39,20c41.8,29.2,69.2,77.7,69.2,132.5S428.5,386.7,386.7,415.9z M492,401.1c0,8.1-6.6,14.8-14.8,14.8h-58.9
			c35.4-33.1,57.5-80.3,57.5-132.5s-22.2-99.3-57.5-132.5h4h54.9c8.1,0,14.8,6.6,14.8,14.8L492,401.1L492,401.1z"/>
	</g>
</g>
<g>
	<g>
		<path class="st0" d="M294.4,152.1c-72.4,0-131.3,58.9-131.3,131.3c0,72.4,58.9,131.3,131.3,131.3c10.5,0,21-1.3,31.2-3.7
			c5.4-1.3,8.7-6.7,7.3-12.1c-1.3-5.4-6.7-8.7-12.1-7.3c-8.6,2.1-17.5,3.2-26.5,3.2c-61.4,0-111.3-49.9-111.3-111.3
			S233,172.1,294.4,172.1s111.3,49.9,111.3,111.3c0,22.4-6.6,43.9-19.1,62.4c-3.1,4.6-1.9,10.8,2.7,13.9c4.6,3.1,10.8,1.9,13.9-2.7
			c14.8-21.8,22.5-47.2,22.5-73.6C425.7,211,366.8,152.1,294.4,152.1z"/>
	</g>
</g>
<g>
	<g>
		<path class="st0" d="M70.3,185.5c-20.5,0-37.2,16.7-37.2,37.2S49.8,260,70.3,260s37.2-16.7,37.2-37.2S90.8,185.5,70.3,185.5z
			 M70.3,240c-9.5,0-17.2-7.7-17.2-17.2s7.7-17.2,17.2-17.2s17.2,7.7,17.2,17.2S79.8,240,70.3,240z"/>
	</g>
</g>
<g>
	<g>
		<path class="st0" d="M375.1,379.9c-0.1-0.6-0.3-1.3-0.6-1.9c-0.3-0.6-0.6-1.2-0.9-1.7c-0.4-0.5-0.8-1.1-1.2-1.5s-1-0.9-1.5-1.3
			c-0.5-0.4-1.1-0.7-1.7-0.9s-1.2-0.4-1.9-0.6c-1.3-0.3-2.6-0.3-3.9,0c-0.6,0.1-1.3,0.3-1.9,0.6c-0.6,0.3-1.2,0.6-1.7,0.9
			c-0.5,0.4-1,0.8-1.5,1.3c-0.5,0.5-0.9,1-1.2,1.5c-0.4,0.5-0.7,1.1-0.9,1.7c-0.3,0.6-0.4,1.2-0.6,1.9c-0.1,0.6-0.2,1.3-0.2,2
			s0.1,1.3,0.2,2s0.3,1.3,0.6,1.9c0.3,0.6,0.6,1.2,0.9,1.7c0.4,0.5,0.8,1.1,1.2,1.5c0.5,0.5,1,0.9,1.5,1.2c0.6,0.4,1.1,0.7,1.7,0.9
			s1.2,0.4,1.9,0.6c0.6,0.1,1.3,0.2,2,0.2c0.7,0,1.3-0.1,2-0.2c0.6-0.1,1.3-0.3,1.9-0.6c0.6-0.3,1.2-0.6,1.7-0.9
			c0.5-0.4,1.1-0.8,1.5-1.2c1.9-1.9,2.9-4.4,2.9-7.1C375.3,381.2,375.2,380.5,375.1,379.9z"/>
	</g>
</g>
</svg>
