<svg xmlns="http://www.w3.org/2000/svg" viewBox="0 0 29.24 29.24"><defs><style>.cls-1{fill:#f8a734;}.cls-2{fill:#fff;}</style></defs><title>facebook</title><g id="Capa_2" data-name="Capa 2"><g id="ELEMENTS"><path class="cls-1" d="M0,21.59V7.65A7.67,7.67,0,0,1,7.65,0H21.59a7.67,7.67,0,0,1,7.65,7.65V21.59a7.67,7.67,0,0,1-7.65,7.65H16.91l-2.46-.6-2.11.6H7.65A7.67,7.67,0,0,1,0,21.59Z"/><path class="cls-2" d="M20.31,19.33,21,15.1H16.91V12.36a2.11,2.11,0,0,1,2.38-2.28h1.84V6.48a22.08,22.08,0,0,0-3.27-.29c-3.34,0-5.52,2-5.52,5.69V15.1H8.62v4.23h3.72v9.91h4.57V19.33Z"/></g></g></svg>