<?xml version="1.0" encoding="utf-8"?>
<!-- Generator: Adobe Illustrator 24.0.2, SVG Export Plug-In . SVG Version: 6.00 Build 0)  -->
<svg version="1.1" id="Capa_1" xmlns="http://www.w3.org/2000/svg" xmlns:xlink="http://www.w3.org/1999/xlink" x="0px" y="0px"
	 viewBox="0 0 512 512" style="enable-background:new 0 0 512 512;" xml:space="preserve">
<style type="text/css">
	.st0{fill:#F8A734;}
</style>
<g>
	<g>
		<path class="st0" d="M485.3,458.6h-7.5V228c0-10.5-8.5-19-19-19H322.7V25.5c0-14-11.4-25.4-25.4-25.4H59.6
			c-14,0-25.4,11.4-25.4,25.4v433.1h-7.5C12,458.6,0,470.6,0,485.3c0,14.7,12,26.7,26.7,26.7h458.7c14.7,0,26.7-12,26.7-26.7
			C512,470.6,500,458.6,485.3,458.6L485.3,458.6z M49.2,25.5c0-5.8,4.7-10.4,10.4-10.4h237.7c5.8,0,10.4,4.7,10.4,10.4V209h-64
			c-10.5,0-19,8.5-19,19v172.5c0,4.1,3.4,7.5,7.5,7.5s7.5-3.4,7.5-7.5V228c0-2.2,1.8-4,4-4h215.1c2.2,0,4,1.8,4,4v230.6H239.7v-23.1
			c0-4.1-3.4-7.5-7.5-7.5s-7.5,3.4-7.5,7.5v23.1H49.2V25.5z M485.3,496.9H26.7c-6.4,0-11.7-5.2-11.7-11.7s5.2-11.7,11.7-11.7h458.7
			c6.4,0,11.7,5.2,11.7,11.7S491.8,496.9,485.3,496.9z"/>
		<path class="st0" d="M117.3,45.8H86.6c-8.2,0-14.9,6.7-14.9,14.9v30.8c0,8.2,6.7,14.9,14.9,14.9h30.8c8.2,0,14.9-6.7,14.9-14.9
			V60.6C132.2,52.5,125.5,45.8,117.3,45.8z M117.2,91.3H86.7V60.8h30.5V91.3z"/>
		<path class="st0" d="M193.8,45.8h-30.8c-8.2,0-14.9,6.7-14.9,14.9v30.8c0,8.2,6.7,14.9,14.9,14.9h30.8c8.2,0,14.9-6.7,14.9-14.9
			V60.6C208.7,52.5,202,45.8,193.8,45.8L193.8,45.8z M193.7,91.3h-30.5V60.8h30.5V91.3z"/>
		<path class="st0" d="M239.6,106.3h30.8c8.2,0,14.9-6.7,14.9-14.9V60.6c0-8.2-6.7-14.9-14.9-14.9h-30.8c-8.2,0-14.9,6.7-14.9,14.9
			v30.8C224.7,99.6,231.4,106.3,239.6,106.3L239.6,106.3z M239.7,60.8h30.5v30.5h-30.5V60.8z"/>
		<path class="st0" d="M117.3,139.4H86.6c-8.2,0-14.9,6.7-14.9,14.9V185c0,8.2,6.7,14.9,14.9,14.9h30.8c8.2,0,14.9-6.7,14.9-14.9
			v-30.8C132.2,146.1,125.5,139.4,117.3,139.4z M117.2,184.9H86.7v-30.5h30.5V184.9z"/>
		<path class="st0" d="M193.8,139.4h-30.8c-8.2,0-14.9,6.7-14.9,14.9V185c0,8.2,6.7,14.9,14.9,14.9h30.8c8.2,0,14.9-6.7,14.9-14.9
			v-30.8C208.7,146.1,202,139.4,193.8,139.4L193.8,139.4z M193.7,184.9h-30.5v-30.5h30.5V184.9z"/>
		<path class="st0" d="M239.6,199.9h30.8c8.2,0,14.9-6.7,14.9-14.9v-30.8c0-8.2-6.7-14.9-14.9-14.9h-30.8c-8.2,0-14.9,6.7-14.9,14.9
			V185C224.7,193.2,231.4,199.9,239.6,199.9L239.6,199.9z M239.7,154.4h30.5v30.5h-30.5V154.4z"/>
		<path class="st0" d="M117.3,233H86.6c-8.2,0-14.9,6.7-14.9,14.9v30.8c0,8.2,6.7,14.9,14.9,14.9h30.8c8.2,0,14.9-6.7,14.9-14.9
			v-30.8C132.2,239.7,125.5,233,117.3,233L117.3,233z M117.2,278.5H86.7V248h30.5V278.5z"/>
		<path class="st0" d="M193.8,233h-30.8c-8.2,0-14.9,6.7-14.9,14.9v30.8c0,8.2,6.7,14.9,14.9,14.9h30.8c8.2,0,14.9-6.7,14.9-14.9
			v-30.8C208.7,239.7,202,233,193.8,233L193.8,233z M193.7,278.5h-30.5V248h30.5V278.5z"/>
		<path class="st0" d="M117.3,326.7H86.6c-8.2,0-14.9,6.7-14.9,14.9v30.8c0,8.2,6.7,14.9,14.9,14.9h30.8c8.2,0,14.9-6.7,14.9-14.9
			v-30.8C132.2,333.3,125.5,326.7,117.3,326.7z M117.2,372.2H86.7v-30.5h30.5V372.2z"/>
		<path class="st0" d="M193.8,326.7h-30.8c-8.2,0-14.9,6.7-14.9,14.9v30.8c0,8.2,6.7,14.9,14.9,14.9h30.8c8.2,0,14.9-6.7,14.9-14.9
			v-30.8C208.7,333.3,202,326.7,193.8,326.7L193.8,326.7z M193.7,372.2h-30.5v-30.5h30.5V372.2z"/>
		<path class="st0" d="M270.2,302.9h29.1c7.1,0,12.8-5.7,12.8-12.8v-28.4c0-7.1-5.7-12.8-12.8-12.8h-29.1c-7.1,0-12.8,5.7-12.8,12.8
			v28.4C257.3,297.1,263.1,302.9,270.2,302.9z M272.3,263.8h24.8v24h-24.8V263.8z"/>
		<path class="st0" d="M270.2,364.2h29.1c7.1,0,12.8-5.7,12.8-12.8V323c0-7.1-5.7-12.8-12.8-12.8h-29.1c-7.1,0-12.8,5.7-12.8,12.8
			v28.4C257.3,358.4,263.1,364.2,270.2,364.2z M272.3,325.2h24.8v24h-24.8V325.2z"/>
		<path class="st0" d="M270.2,425.5h29.1c7.1,0,12.8-5.7,12.8-12.8v-28.4c0-7.1-5.7-12.8-12.8-12.8h-29.1c-7.1,0-12.8,5.7-12.8,12.8
			v28.4C257.3,419.7,263.1,425.5,270.2,425.5z M272.3,386.5h24.8v24h-24.8V386.5z"/>
		<path class="st0" d="M336.7,302.9h29.1c7.1,0,12.8-5.7,12.8-12.8v-28.4c0-7.1-5.7-12.8-12.8-12.8h-29.1c-7.1,0-12.8,5.7-12.8,12.8
			v28.4C323.9,297.1,329.6,302.9,336.7,302.9z M338.9,263.8h24.8v24h-24.8V263.8z"/>
		<path class="st0" d="M336.7,364.2h29.1c7.1,0,12.8-5.7,12.8-12.8V323c0-7.1-5.7-12.8-12.8-12.8h-29.1c-7.1,0-12.8,5.7-12.8,12.8
			v28.4C323.9,358.4,329.6,364.2,336.7,364.2z M338.9,325.2h24.8v24h-24.8V325.2z"/>
		<path class="st0" d="M336.7,425.5h29.1c7.1,0,12.8-5.7,12.8-12.8v-28.4c0-7.1-5.7-12.8-12.8-12.8h-29.1c-7.1,0-12.8,5.7-12.8,12.8
			v28.4C323.9,419.7,329.6,425.5,336.7,425.5z M338.9,386.5h24.8v24h-24.8V386.5z"/>
		<path class="st0" d="M403.2,302.9h29.1c7.1,0,12.8-5.7,12.8-12.8v-28.4c0-7.1-5.7-12.8-12.8-12.8h-29.1c-7.1,0-12.8,5.7-12.8,12.8
			v28.4C390.4,297.1,396.2,302.9,403.2,302.9z M405.4,263.8h24.8v24h-24.8V263.8z"/>
		<path class="st0" d="M403.2,364.2h29.1c7.1,0,12.8-5.7,12.8-12.8V323c0-7.1-5.7-12.8-12.8-12.8h-29.1c-7.1,0-12.8,5.7-12.8,12.8
			v28.4C390.4,358.4,396.2,364.2,403.2,364.2z M405.4,325.2h24.8v24h-24.8V325.2z"/>
		<path class="st0" d="M403.2,425.5h29.1c7.1,0,12.8-5.7,12.8-12.8v-28.4c0-7.1-5.7-12.8-12.8-12.8h-29.1c-7.1,0-12.8,5.7-12.8,12.8
			v28.4C390.4,419.7,396.2,425.5,403.2,425.5z M405.4,386.5h24.8v24h-24.8V386.5z"/>
		<path class="st0" d="M409.2,173.8c5.1,3.8,12.1,3.8,17.2,0c13-9.5,44.1-35.4,52.9-71.9c1-4-1.5-8.1-5.5-9c-4-1-8.1,1.5-9,5.5
			c-7.8,32.2-37.5,56.2-46.9,63.1c-11.8-8.7-48.8-39-48.8-78.9c0-26.9,21.9-48.8,48.8-48.8c21.1,0,39.8,13.5,46.4,33.5
			c1.3,3.9,5.5,6.1,9.5,4.8c3.9-1.3,6.1-5.5,4.8-9.5c-8.6-26.2-33-43.8-60.6-43.8c-35.2,0-63.8,28.6-63.8,63.8
			C354,129.8,396.3,164.3,409.2,173.8L409.2,173.8z"/>
		<path class="st0" d="M417.8,47.1c-19.6,0-35.5,15.9-35.5,35.5s15.9,35.5,35.5,35.5c19.6,0,35.5-15.9,35.5-35.5
			S437.4,47.1,417.8,47.1z M417.8,103.1c-11.3,0-20.5-9.2-20.5-20.5s9.2-20.5,20.5-20.5s20.5,9.2,20.5,20.5S429.1,103.1,417.8,103.1
			z"/>
	</g>
</g>
</svg>
