<?xml version="1.0" encoding="utf-8"?>
<!-- Generator: Adobe Illustrator 24.0.2, SVG Export Plug-In . SVG Version: 6.00 Build 0)  -->
<svg version="1.1" id="Capa_1" xmlns="http://www.w3.org/2000/svg" xmlns:xlink="http://www.w3.org/1999/xlink" x="0px" y="0px"
	 viewBox="0 0 480 480" style="enable-background:new 0 0 480 480;" xml:space="preserve">
<style type="text/css">
	.st0{fill:#F8A734;}
</style>
<g>
	<g>
		<path class="st0" d="M269.7,149.3c6.6-7.3,10.3-16.7,10.3-26.6v-16c0-22.1-17.9-40-40-40s-40,17.9-40,40v16
			c0,9.8,3.7,19.3,10.3,26.6C194.6,155,184,170,184,186.7v32h16v-32c0-13.3,10.7-24,24-24h8v56h16v-56h8c13.3,0,24,10.7,24,24v32h16
			v-32C295.9,170,285.4,155,269.7,149.3z M264,122.7c0,13.3-10.7,24-24,24s-24-10.7-24-24v-16c0-13.3,10.7-24,24-24s24,10.7,24,24
			V122.7z"/>
	</g>
</g>
<g>
	<g>
		<path class="st0" d="M214.7,398.3l-14.7-22v-61.6c0-22.1-17.9-40-40-40h-16v16h16c13.3,0,24,10.7,24,24v64c0,1.6,0.5,3.1,1.3,4.4
			l7.7,11.6H168v-80h-16v88c0,4.4,3.6,8,8,8h48c4.4,0,8-3.6,8-8C216,401.2,215.5,399.6,214.7,398.3z"/>
	</g>
</g>
<g>
	<g>
		<path class="st0" d="M136,122.7v-16c0-22.1-17.9-40-40-40s-40,17.9-40,40v16c0,10.7,4.3,21,11.9,28.4
			c-14.6,6.8-24.9,20.4-27.3,36.3c-7-5.6-15.7-8.7-24.6-8.7H8c-4.4,0-8,3.6-8,8c0,0.3,0,0.7,0.1,1L14,299.2
			c1.5,12.1,11,21.6,23,23.2L8.4,408.2l15.2,5.1l30.2-90.5H120v88h16v-96c0-22.1-17.9-40-40-40H64c-4.4,0-8-3.6-8-8v-72
			c0-17.7,14.3-32,32-32v88h16v-83.6c9.9,5.7,16,16.2,16,27.6v72h16v-72c0-15-7-29.1-19-38.1C128.8,149.4,136,136.5,136,122.7z
			 M64,290.7h32c10.1,0,19.2,6.4,22.5,16H40.6c-5.5,0-10.1-4.1-10.8-9.5L17.1,194.7c12.8,0.6,22.9,11.1,22.9,24v48
			C40,280,50.7,290.7,64,290.7z M120,122.7c0,13.3-10.7,24-24,24s-24-10.7-24-24v-16c0-13.3,10.7-24,24-24s24,10.7,24,24V122.7z"/>
	</g>
</g>
<g>
	<g>
		<polygon class="st0" points="152,234.7 152,250.7 232,250.7 232,410.7 248,410.7 248,250.7 328,250.7 328,234.7 		"/>
	</g>
</g>
<g>
	<g>
		<path class="st0" d="M296,378.7v-64c0-13.3,10.7-24,24-24h16v-16h-16c-22.1,0-40,17.9-40,40v61.6l-14.7,22
			c-2.4,3.7-1.4,8.6,2.3,11.1c1.3,0.9,2.8,1.3,4.4,1.3h48c4.4,0,8-3.6,8-8v-88h-16v80h-25.1l7.7-11.6
			C295.5,381.9,296,380.3,296,378.7z"/>
	</g>
</g>
<g>
	<g>
		<path class="st0" d="M466,299.2l13.9-111.5c0.5-4.4-2.6-8.4-7-8.9c-0.3,0-0.6-0.1-1-0.1h-8c-9,0-17.6,3.1-24.6,8.7
			c-2.5-15.9-12.7-29.5-27.3-36.3c7.6-7.5,11.9-17.7,11.9-28.4v-16c0-22.1-17.9-40-40-40s-40,17.9-40,40v16c0,13.8,7.2,26.6,19,33.9
			c-11.9,9-18.9,23.2-19,38.1v72h16v-72c0-11.4,6.1-21.9,16-27.6v83.6h16v-88c17.7,0,32,14.3,32,32v72c0,4.4-3.6,8-8,8h-32
			c-22.1,0-40,17.9-40,40v96h16v-88h66.2l30.2,90.5l15.2-5.1L443,322.4C455,320.8,464.5,311.2,466,299.2z M408,122.7
			c0,13.3-10.7,24-24,24s-24-10.7-24-24v-16c0-13.3,10.7-24,24-24s24,10.7,24,24V122.7z M439.4,306.7h-77.9c3.4-9.6,12.4-16,22.5-16
			h32c13.3,0,24-10.7,24-24v-48c0-12.9,10.1-23.4,22.9-24l-12.8,102.5C449.5,302.6,444.8,306.7,439.4,306.7z"/>
	</g>
</g>
</svg>
