<?xml version="1.0" encoding="utf-8"?>
<!-- Generator: Adobe Illustrator 24.0.2, SVG Export Plug-In . SVG Version: 6.00 Build 0)  -->
<svg version="1.1" id="Capa_1" xmlns="http://www.w3.org/2000/svg" xmlns:xlink="http://www.w3.org/1999/xlink" x="0px" y="0px"
	 viewBox="0 0 1369.3 348" style="enable-background:new 0 0 1369.3 348;" xml:space="preserve">
<style type="text/css">
	.st0{fill:#F8A734;}
	.st1{fill:#262626;}
	.st2{enable-background:new    ;}
	.st3{fill:none;stroke:#1A1A1A;stroke-width:3;stroke-miterlimit:10;}
	.st4{fill:none;stroke:#F8A734;stroke-width:3;stroke-miterlimit:10;}
</style>
<title>tour</title>
<rect x="372" class="st0" width="608" height="318"/>
<path class="st1" d="M997,33v312H395V33H997 M1000,30H392v318h608V30z"/>
<g class="st2">
	<path d="M572.6,188.6c-0.7-0.7-1-1.5-1-2.7v-30.8h-10.4c-2.3,0-3.4-1-3.4-3c0-2,1.1-3,3.4-3h28.1c2.3,0,3.4,1,3.4,3
		c0,2-1.1,3-3.4,3h-10.4V186c0,1.1-0.3,2-1,2.7c-0.7,0.7-1.5,1-2.7,1C574.1,189.6,573.2,189.3,572.6,188.6z"/>
</g>
<g class="st2">
	<path d="M603.3,187.6c-2.5-1.5-4.5-3.6-5.8-6.3c-1.4-2.7-2-5.9-2-9.6c0-3.7,0.7-6.9,2-9.6s3.3-4.8,5.8-6.3s5.5-2.2,9-2.2
		c3.4,0,6.4,0.7,8.9,2.2c2.5,1.5,4.5,3.6,5.8,6.3s2,5.9,2,9.6c0,3.7-0.7,6.9-2,9.6c-1.4,2.7-3.3,4.8-5.8,6.3
		c-2.5,1.5-5.5,2.2-8.9,2.2C608.8,189.8,605.8,189,603.3,187.6z M619.8,181.3c1.8-2.2,2.7-5.4,2.7-9.6c0-4.2-0.9-7.4-2.7-9.6
		c-1.8-2.2-4.3-3.3-7.6-3.3c-3.3,0-5.8,1.1-7.6,3.3c-1.8,2.2-2.7,5.4-2.7,9.6c0,4.2,0.9,7.4,2.7,9.6c1.8,2.2,4.4,3.3,7.6,3.3
		C615.4,184.6,618,183.5,619.8,181.3z"/>
	<path d="M639,186c-2.5-2.5-3.8-6.2-3.8-11V157c0-1,0.3-1.7,0.9-2.3c0.6-0.6,1.3-0.9,2.3-0.9c1,0,1.7,0.3,2.3,0.9
		c0.6,0.6,0.9,1.4,0.9,2.3v18.4c0,3,0.7,5.3,2.1,6.9c1.4,1.6,3.5,2.3,6.3,2.3c2.7,0,4.8-0.8,6.3-2.3c1.4-1.6,2.1-3.9,2.1-6.9V157
		c0-1,0.3-1.7,0.9-2.3c0.6-0.6,1.3-0.9,2.3-0.9c1,0,1.7,0.3,2.3,0.9c0.6,0.6,0.8,1.4,0.8,2.3v18.1c0,4.8-1.3,8.4-3.8,10.9
		c-2.5,2.5-6.1,3.8-10.9,3.8C645.2,189.8,641.5,188.5,639,186z"/>
	<path d="M700.9,187c0,0.8-0.3,1.4-0.9,1.9c-0.6,0.5-1.3,0.8-2.2,0.8c-0.5,0-1-0.1-1.5-0.4s-0.9-0.6-1.2-1.1l-6.7-10.1
		c-0.7-1.1-1.4-1.8-2.1-2.3c-0.8-0.4-1.7-0.7-2.9-0.7h-4.9v11.2c0,1-0.3,1.8-0.9,2.4c-0.6,0.6-1.3,0.9-2.3,0.9c-1,0-1.7-0.3-2.3-0.9
		c-0.6-0.6-0.9-1.4-0.9-2.4v-29.3c0-1,0.3-1.7,0.8-2.3c0.5-0.5,1.3-0.8,2.3-0.8h12.5c4,0,7,0.9,9.1,2.7c2.1,1.8,3.1,4.4,3.1,7.7
		c0,2.7-0.8,5-2.3,6.7c-1.6,1.8-3.7,2.9-6.6,3.4c1,0.2,1.8,0.7,2.5,1.3c0.7,0.6,1.5,1.4,2.2,2.5l4.5,7
		C700.7,185.9,700.9,186.5,700.9,187z M692.2,168.8c1.1-0.9,1.7-2.3,1.7-4.2c0-1.9-0.6-3.3-1.7-4.2c-1.1-0.9-2.9-1.3-5.3-1.3h-8.4
		v11.2h8.4C689.2,170.2,691,169.8,692.2,168.8z"/>
	<path d="M741.8,174.2c1.1,1.5,1.7,3.3,1.7,5.5c0,3-1.1,5.5-3.4,7.3s-5.3,2.7-9,2.7c-2.2,0-4.3-0.3-6.3-1c-2-0.7-3.7-1.6-5.1-2.8
		c-0.8-0.7-1.2-1.4-1.2-2.3c0-0.7,0.2-1.4,0.6-1.9c0.4-0.5,0.9-0.8,1.5-0.8c0.3,0,0.6,0.1,0.9,0.2s0.6,0.3,1.1,0.6
		c1.4,0.9,2.7,1.7,4,2.2c1.3,0.5,2.6,0.8,4.1,0.8c2.2,0,3.8-0.4,4.9-1.3c1.1-0.9,1.6-2.2,1.6-4c0-1.8-0.6-3.1-1.7-3.9
		c-1.1-0.9-2.8-1.3-5.2-1.3h-2.9c-0.8,0-1.4-0.3-1.8-0.8c-0.4-0.5-0.6-1.1-0.6-1.8c0-0.7,0.2-1.3,0.6-1.8c0.4-0.5,1-0.8,1.8-0.8h2
		c4.6,0,6.9-1.7,6.9-5.1c0-1.6-0.5-2.8-1.5-3.7c-1-0.9-2.3-1.3-4-1.3c-2.4,0-5,1-7.8,2.9c-0.5,0.3-0.8,0.5-1.1,0.6
		c-0.3,0.1-0.6,0.2-0.9,0.2c-0.6,0-1.1-0.3-1.5-0.8s-0.6-1.1-0.6-1.9c0-0.5,0.1-0.9,0.3-1.3c0.2-0.3,0.5-0.7,0.9-1.1
		c1.4-1.2,3.1-2.1,5-2.8c1.9-0.7,3.9-1,6-1c3.5,0,6.2,0.9,8.3,2.5c2,1.7,3.1,4,3.1,6.8c0,1.9-0.5,3.6-1.5,5.1
		c-1,1.5-2.4,2.5-4.1,3.2C739.1,171.8,740.7,172.8,741.8,174.2z"/>
	<path d="M769.4,168.1c1.6,1,2.9,2.3,3.8,4c0.9,1.7,1.4,3.7,1.4,5.9c0,2.3-0.5,4.3-1.5,6.1c-1,1.8-2.4,3.2-4.2,4.2s-3.8,1.5-6.1,1.5
		c-4.5,0-7.9-1.5-10.3-4.5c-2.4-3-3.6-7.3-3.6-12.9c0-3.8,0.6-7.2,1.7-10s2.8-5,4.9-6.5s4.6-2.3,7.5-2.3c1.9,0,3.8,0.3,5.7,1
		c1.9,0.7,3.5,1.6,4.9,2.8c0.4,0.4,0.7,0.7,0.9,1.1c0.2,0.4,0.3,0.8,0.3,1.3c0,0.7-0.2,1.4-0.6,1.9c-0.4,0.5-0.9,0.8-1.5,0.8
		c-0.3,0-0.7-0.1-1-0.2c-0.3-0.1-0.7-0.3-1.1-0.6c-2.8-1.9-5.2-2.9-7.4-2.9c-2.4,0-4.4,1.1-5.8,3.4c-1.4,2.3-2.1,5.4-2.2,9.5
		c0.8-1.5,1.9-2.7,3.5-3.6c1.5-0.9,3.3-1.3,5.1-1.3C765.9,166.7,767.7,167.2,769.4,168.1z M766.8,182.9c1.1-1.2,1.6-2.7,1.6-4.7
		s-0.5-3.5-1.6-4.7c-1.1-1.2-2.6-1.8-4.4-1.8c-1.9,0-3.4,0.6-4.5,1.8c-1.1,1.2-1.7,2.7-1.7,4.6c0,1.9,0.6,3.5,1.7,4.7
		c1.2,1.2,2.7,1.8,4.5,1.8C764.2,184.7,765.7,184.1,766.8,182.9z"/>
	<path d="M782.1,185.1c-2.2-3.1-3.3-7.6-3.3-13.5c0-5.9,1.1-10.3,3.3-13.4c2.2-3.1,5.4-4.6,9.5-4.6s7.4,1.5,9.5,4.6
		c2.2,3.1,3.3,7.6,3.3,13.4c0,5.9-1.1,10.4-3.3,13.5c-2.2,3.1-5.4,4.7-9.5,4.7S784.3,188.2,782.1,185.1z M796.6,181.6
		c1-2.1,1.5-5.4,1.5-9.9c0-4.6-0.5-7.9-1.5-9.9s-2.7-3.1-5-3.1s-3.9,1-5,3.1c-1,2.1-1.5,5.4-1.5,9.9c0,4.5,0.5,7.8,1.5,9.9
		s2.7,3.1,5,3.1S795.5,183.7,796.6,181.6z"/>
	<path d="M812,167.7c-1.1-0.7-2-1.5-2.7-2.7c-0.7-1.1-1-2.4-1-3.8c0-1.4,0.3-2.7,1-3.8s1.6-2,2.7-2.7c1.1-0.6,2.4-1,3.8-1
		c1.4,0,2.7,0.3,3.8,1c1.2,0.7,2.1,1.5,2.7,2.7c0.7,1.1,1,2.4,1,3.8c0,1.4-0.3,2.7-1,3.8c-0.7,1.1-1.6,2-2.7,2.7
		c-1.1,0.7-2.4,1-3.8,1C814.4,168.7,813.1,168.3,812,167.7z M818.6,164.1c0.7-0.8,1.1-1.7,1.1-2.9c0-1.2-0.4-2.2-1.1-2.9
		c-0.7-0.8-1.7-1.1-2.8-1.1c-1.1,0-2,0.4-2.8,1.1s-1.1,1.7-1.1,2.9c0,1.2,0.4,2.1,1.1,2.9s1.7,1.1,2.8,1.1
		C816.9,165.3,817.8,164.9,818.6,164.1z"/>
</g>
<line class="st3" x1="23.2" y1="43.6" x2="246.4" y2="40.8"/>
<line class="st3" x1="58.3" y1="115.3" x2="281.5" y2="112.4"/>
<line class="st3" x1="25.2" y1="199.1" x2="248.4" y2="196.3"/>
<line class="st3" x1="73.8" y1="270.3" x2="297" y2="267.5"/>
<line class="st4" x1="0" y1="74.6" x2="223.2" y2="71.7"/>
<line class="st4" x1="35.1" y1="146.2" x2="258.3" y2="143.4"/>
<line class="st4" x1="2" y1="230.1" x2="225.2" y2="227.2"/>
<line class="st4" x1="50.6" y1="301.3" x2="273.8" y2="298.5"/>
<line class="st3" x1="1074.8" y1="40.6" x2="1315.1" y2="37.6"/>
<line class="st3" x1="1112.5" y1="112.3" x2="1352.8" y2="109.2"/>
<line class="st3" x1="1076.8" y1="196.1" x2="1317.1" y2="193.1"/>
<line class="st3" x1="1129.1" y1="267.3" x2="1369.3" y2="264.3"/>
<line class="st4" x1="1049.8" y1="71.6" x2="1290" y2="68.6"/>
<line class="st4" x1="1087.5" y1="143.3" x2="1327.8" y2="140.2"/>
<line class="st4" x1="1051.8" y1="227.1" x2="1292" y2="224.1"/>
<line class="st4" x1="1104" y1="298.3" x2="1344.3" y2="295.3"/>
</svg>
