<?xml version="1.0" encoding="utf-8"?>
<!-- Generator: Adobe Illustrator 24.0.2, SVG Export Plug-In . SVG Version: 6.00 Build 0)  -->
<svg version="1.1" id="Capa_1" xmlns="http://www.w3.org/2000/svg" xmlns:xlink="http://www.w3.org/1999/xlink" x="0px" y="0px"
	 viewBox="0 0 512 512" style="enable-background:new 0 0 512 512;" xml:space="preserve">
<style type="text/css">
	.st0{fill:#F8A734;}
</style>
<path class="st0" d="M496,224h-9.4c1.9-5.5,1.8-11.5-0.3-16.9c12.8-3.5,20.3-16.7,16.8-29.5c-2.9-10.4-12.3-17.7-23.1-17.7h-64
	c-4.4,0-8,3.6-8,8v24h-8c-4.4,0-8,3.6-8,8v24h-97.2l-2.6-16H356c15.5,0,28-12.5,28-28V60c0-15.5-12.5-28-28-28H156
	c-15.5,0-28,12.5-28,28v120c0,15.5,12.5,28,28,28h63.8l-2.6,16H112v-56c0-4.4-3.6-8-8-8H56c-4.4,0-8,3.6-8,8H32c-4.4,0-8,3.6-8,8v32
	c0,4.4,3.6,8,8,8h16v8H16c-4.4,0-8,3.6-8,8v32c0,4.4,3.6,8,8,8h23L16,471.1c-0.5,4.4,2.7,8.4,7.1,8.9c0.3,0,0.6,0.1,0.9,0.1h16
	c3.8,0,7.1-2.7,7.9-6.5L86.6,272h338.8l38.8,201.5c0.7,3.8,4,6.5,7.9,6.5h16c4.4,0,8-3.6,8-8c0-0.3,0-0.6-0.1-0.9L473,272h23
	c4.4,0,8-3.6,8-8v-32C504,227.6,500.4,224,496,224z M424,176h56c4.4,0,8,3.6,8,8s-3.6,8-8,8h-56V176z M408,208h56c4.4,0,8,3.6,8,8
	s-3.6,8-8,8h-56V208z M156,192c-6.6,0-12-5.4-12-12V60c0-6.6,5.4-12,12-12h200c6.6,0,12,5.4,12,12v120c0,6.6-5.4,12-12,12h-66.3
	l-2.8-17.3c-0.6-3.9-4-6.7-7.9-6.7h-46c-3.9,0-7.3,2.9-7.9,6.7l-2.8,17.3H156z M278.6,224h-45.2l6.4-40h32.4L278.6,224z M64,176h32
	v48H64V176z M40,200v-16h8v16H40z M33.4,464H33l22.2-192h15.2L33.4,464z M479,464h-0.4l-36.9-192h15.2L479,464z M488,256H24v-16h464
	V256z"/>
</svg>
